<?xml version="1.0" encoding="UTF-8"?>
<svg xmlns="http://www.w3.org/2000/svg" xmlns:xlink="http://www.w3.org/1999/xlink" width="20px" height="20px" viewBox="0 0 20 20" version="1.1">
<g id="surface1">
<path style=" stroke:none;fill-rule:nonzero;fill:rgb(86.666667%,29.803923%,20.784314%);fill-opacity:1;" d="M 18.421875 9.21875 L 10.78125 1.578125 C 10.566406 1.367188 10.28125 1.25 9.984375 1.25 C 9.683594 1.25 9.398438 1.367188 9.1875 1.578125 L 7.597656 3.167969 L 9.609375 5.179688 C 10.09375 5.015625 10.632812 5.140625 10.992188 5.503906 C 11.351562 5.867188 11.472656 6.402344 11.304688 6.886719 L 13.242188 8.824219 C 13.839844 8.617188 14.5 8.859375 14.824219 9.398438 C 15.152344 9.9375 15.054688 10.632812 14.597656 11.066406 C 14.136719 11.496094 13.4375 11.550781 12.917969 11.191406 C 12.398438 10.835938 12.199219 10.164062 12.441406 9.578125 L 10.632812 7.769531 L 10.632812 12.53125 C 11.195312 12.808594 11.488281 13.445312 11.335938 14.058594 C 11.179688 14.667969 10.621094 15.089844 9.988281 15.066406 C 9.359375 15.042969 8.832031 14.585938 8.71875 13.964844 C 8.609375 13.34375 8.945312 12.730469 9.527344 12.492188 L 9.527344 7.6875 C 9.199219 7.550781 8.933594 7.289062 8.796875 6.960938 C 8.660156 6.628906 8.664062 6.257812 8.800781 5.929688 L 6.820312 3.945312 L 1.578125 9.1875 C 1.367188 9.398438 1.25 9.683594 1.25 9.984375 C 1.25 10.285156 1.367188 10.570312 1.578125 10.78125 L 9.21875 18.421875 C 9.433594 18.632812 9.71875 18.75 10.015625 18.75 C 10.316406 18.75 10.601562 18.632812 10.8125 18.421875 L 18.421875 10.8125 C 18.632812 10.601562 18.75 10.316406 18.75 10.015625 C 18.75 9.714844 18.632812 9.429688 18.421875 9.21875 "/>
<path style=" stroke:none;fill-rule:nonzero;fill:rgb(100%,100%,100%);fill-opacity:1;" d="M 7.597656 3.167969 L 9.609375 5.179688 C 10.09375 5.015625 10.632812 5.140625 10.992188 5.503906 C 11.351562 5.867188 11.472656 6.402344 11.304688 6.886719 L 13.242188 8.824219 C 13.839844 8.617188 14.5 8.859375 14.824219 9.398438 C 15.152344 9.9375 15.054688 10.632812 14.597656 11.066406 C 14.136719 11.496094 13.4375 11.550781 12.917969 11.191406 C 12.398438 10.835938 12.199219 10.164062 12.441406 9.578125 L 10.632812 7.769531 L 10.632812 12.53125 C 11.195312 12.808594 11.488281 13.445312 11.335938 14.058594 C 11.179688 14.667969 10.621094 15.089844 9.988281 15.066406 C 9.359375 15.042969 8.832031 14.585938 8.71875 13.964844 C 8.609375 13.34375 8.945312 12.730469 9.527344 12.492188 L 9.527344 7.6875 C 9.199219 7.550781 8.933594 7.289062 8.796875 6.960938 C 8.660156 6.628906 8.664062 6.257812 8.800781 5.929688 L 6.820312 3.945312 "/>
</g>
</svg>
