<?xml version="1.0" encoding="UTF-8"?>
<svg xmlns="http://www.w3.org/2000/svg" xmlns:xlink="http://www.w3.org/1999/xlink" width="20px" height="20px" viewBox="0 0 20 20" version="1.1">
<g id="surface1">
<path style=" stroke:none;fill-rule:nonzero;fill:rgb(0%,46.666667%,71.372551%);fill-opacity:1;" d="M 18.558594 16.15625 L 1.441406 16.15625 C 0.648438 16.15625 0 15.507812 0 14.714844 L 0 5.285156 C 0 4.492188 0.648438 3.84375 1.441406 3.84375 L 18.558594 3.84375 C 19.351562 3.84375 20 4.492188 20 5.285156 L 20 14.710938 C 20 15.507812 19.355469 16.152344 18.558594 16.152344 Z M 4.808594 13.269531 L 4.808594 9.519531 L 6.730469 11.921875 L 8.652344 9.519531 L 8.652344 13.269531 L 10.578125 13.269531 L 10.578125 6.730469 L 8.652344 6.730469 L 6.730469 9.136719 L 4.808594 6.730469 L 2.882812 6.730469 L 2.882812 13.273438 Z M 17.691406 10 L 15.769531 10 L 15.769531 6.730469 L 13.847656 6.730469 L 13.847656 10 L 11.921875 10 L 14.808594 13.367188 Z M 17.691406 10 "/>
</g>
</svg>
