<?xml version="1.0" encoding="UTF-8" standalone="no"?>
<!DOCTYPE svg PUBLIC "-//W3C//DTD SVG 1.1//EN" "http://www.w3.org/Graphics/SVG/1.1/DTD/svg11.dtd">
<svg width="20" height="20" viewBox="0 0 20 20" version="1.1" xmlns="http://www.w3.org/2000/svg" xmlns:xlink="http://www.w3.org/1999/xlink" xml:space="preserve" style="fill-rule:evenodd;clip-rule:evenodd;stroke-linejoin:round;stroke-miterlimit:2;">
    <!-- Blue background -->
    <rect x="0" y="0" width="20" height="20" style="fill:rgb(0,121,204);"/>
    
    <!-- Content scaled to 90% and centered with padding -->
    <g transform="matrix(0.9,0,0,0.9,1,1.5)">
        <!-- T letter -->
        <path d="M4,9.825L4,10.646L6.602,10.646L6.602,18.04L8.441,18.04L8.441,10.646L11.047,10.646L11.047,9.841C11.047,9.396 11.035,9.025 11.023,9.017C11.016,9.001 9.43,8.997 7.508,9.001L4.016,9.009L4,9.825Z" style="fill:rgb(254,254,254);"/>
        
        <!-- S letter -->
        <path d="M15.8,9.32C16.3,9.45 16.7,9.67 17.05,10.04C17.23,10.24 17.5,10.6 17.52,10.68C17.53,10.7 16.66,11.29 16.13,11.62C16.11,11.63 16.04,11.55 15.95,11.42C15.69,11.05 15.42,10.89 15.01,10.86C14.4,10.82 14.01,11.14 14.01,11.67C14.01,11.83 14.04,11.92 14.1,12.05C14.23,12.33 14.48,12.49 15.26,12.83C16.69,13.44 17.3,13.85 17.68,14.42C18.1,15.07 18.2,16.1 17.91,16.86C17.59,17.69 16.8,18.25 15.69,18.44C15.35,18.5 14.54,18.49 14.17,18.42C13.37,18.28 12.61,17.88 12.14,17.36C11.96,17.16 11.6,16.63 11.62,16.59C11.63,16.58 11.71,16.53 11.8,16.47C11.89,16.42 12.23,16.23 12.54,16.04L13.12,15.71L13.24,15.89C13.41,16.14 13.78,16.5 14,16.62C14.64,16.95 15.51,16.91 15.95,16.52C16.13,16.35 16.2,16.18 16.2,15.92C16.2,15.69 16.17,15.59 16.05,15.41C15.89,15.19 15.58,15 14.67,14.61C13.64,14.16 13.2,13.89 12.79,13.45C12.56,13.2 12.34,12.79 12.25,12.45C12.17,12.17 12.15,11.46 12.21,11.18C12.42,10.18 13.17,9.49 14.26,9.28C14.61,9.21 15.43,9.24 15.8,9.32Z" style="fill:rgb(254,254,254);"/>
    </g>
</svg>